<?xml version="1.0" encoding="UTF-8" standalone="no"?>
<svg id="Layer_1" data-name="Layer 1" xmlns="http://www.w3.org/2000/svg"
     viewBox="0 0 128 128"><defs><style>.cls-1{fill:#000;}.cls-2{fill:#000;}
</style></defs><title>b</title><path class="cls-1"
                                     d="M108.78629,85.60643a3.14576,3.14576,0,0,0-4.70716-4.17442,45.39348,45.39348,0,1,1-60.648-66.83561l.01533-.01021.01612-.013A45.21613,45.21613,0,0,1,51.35,9.97706a3.14577,3.14577,0,1,0-2.6026-5.728A51.77332,51.77332,0,0,0,42.349,7.71784l-3.4614-4.76989a3.14577,3.14577,0,1,0-5.09207,3.69518l3.4629,4.772a51.67084,51.67084,0,0,0-18.837,39.91155,51.68854,51.68854,0,0,0,47.73331,51.53528v7.46469H50.40374a2.60361,2.60361,0,0,0-2.5185,1.9433l-2.836,10.81676a2.60362,2.60362,0,0,0,2.51849,3.26393H92.64341a2.60362,2.60362,0,0,0,2.5185-3.26393l-2.836-10.81676a2.60361,2.60361,0,0,0-2.51849-1.9433H74.05636v-7.46953a51.73421,51.73421,0,0,0,23.79627-7.93644l3.63149,5.005a3.14581,3.14581,0,1,0,5.09244-3.69482l-3.62889-5.0014A51.6723,51.6723,0,0,0,108.78629,85.60643Z"/>
    <path class="cls-2" d="M47.06513,20.60463a38.36224,38.36224,0,0,0-14.20731,39.724c.1686.69731.3631,1.40731.57787,2.11047A38.39026,38.39026,0,0,0,48.7556,83.107c.61912.415,1.24215.80633,1.85231,1.16332a38.34714,38.34714,0,0,0,42.12264-2.03242l.45656-.3386A38.35929,38.35929,0,0,0,107.39279,42.1766c-.16734-.69342-.36158-1.40306-.57733-2.10956A38.38739,38.38739,0,0,0,91.49617,19.39992l-.00018-.00018c-.61532-.41229-1.2388-.80489-1.85346-1.16711a38.349,38.349,0,0,0-42.12083,2.0335ZM37.3425,55.457a32.96354,32.96354,0,0,1,3.10968-18.77327l1.01034-2.05634.21577,2.281c.06951.73441.16826,1.49822.29366,2.2703a47.73353,47.73353,0,0,0,3.27282,11.003l.19943.46966-7.96146,5.90209ZM50.279,77.6927a33.11959,33.11959,0,0,1-11.2206-15.13588l-.16457-.45371,8.91392-6.60823.35877.64533a71.4551,71.4551,0,0,0,10.89968,14.703l.51316.53079-8.914,6.60814ZM73.88356,60.77l-9.9892,7.4052-.395-.39519A64.6909,64.6909,0,0,1,52.38613,52.78894l-.26328-.49278,9.989-7.40521ZM66.36868,41.73553l9.988-7.40467.39506.39519A64.70427,64.70427,0,0,1,87.865,49.71723l.26319.49278L78.14,57.6145Zm9.068,42.14585A32.96585,32.96585,0,0,1,56.573,81.39757l-1.00831-.45274L63.526,75.04275l.39135.32732A47.846,47.846,0,0,0,73.49382,81.702c.704.34464,1.40562.66126,2.08544.94117l2.11355.87054Zm10.94673-4.66572a10.836,10.836,0,0,1-1.784.13952c-4.50295-.0059-10.21667-2.50014-16.01208-7.04494l-.6683-.52412,9.11922-6.76039L87.4296,79.04265Zm5.77209-4.279-.46965.95038-10.391-14.01683,9.11851-6.75966.30725.79173C93.75089,63.712,94.274,70.64981,92.15551,74.93666ZM102.90983,47.047A32.98965,32.98965,0,0,1,99.8,65.82l-1.0069,2.051L98.574,65.5967c-.07078-.73523-.16954-1.49841-.29358-2.26832a47.67154,47.67154,0,0,0-3.27454-11.00462l-.19979-.46975,7.96354-5.90352ZM89.9731,24.81293a33.1458,33.1458,0,0,1,11.22041,15.13525l.16493.454-8.91519,6.609-.35877-.64542A71.36833,71.36833,0,0,0,81.18573,31.66221l-.51307-.53079,8.9141-6.60822ZM64.811,18.62595a32.97742,32.97742,0,0,1,18.86824,2.48039l1.00849.45283L76.7244,27.4626l-.39135-.3275a47.62757,47.62757,0,0,0-9.57555-6.3293c-.70233-.3439-1.4047-.66053-2.08841-.94162l-2.1159-.86982ZM53.868,23.28888c4.71739-.7791,11.20407,1.73748,17.79507,6.90614l.6683.52412-9.11832,6.75977L52.82182,23.46181Zm-5.30209,3.32943,10.39052,14.016L49.83712,47.3948,49.53,46.60289c-3.02925-7.80852-3.55172-14.74617-1.43359-19.034Z"/>
</svg>